{
  "accessors": [
    {
      "bufferView": 2,
      "componentType": 5126,
      "count": 1033,
      "max": [
        81.0854263305664,
        81.0854263305664,
        81.0854263305664
      ],
      "min": [
        -81.0854263305664,
        -81.0854263305664,
        -81.0854263305664
      ],
      "type": "VEC3"
    },
    {
      "bufferView": 2,
      "byteOffset": 12396,
      "componentType": 5126,
      "count": 1033,
      "max": [
        1.0,
        1.0,
        1.0
      ],
      "min": [
        -1.0,
        -1.0,
        -1.0
      ],
      "type": "VEC3"
    },
    {
      "bufferView": 1,
      "componentType": 5126,
      "count": 1033,
      "max": [
        1.0,
        1.0
      ],
      "min": [
        0.0,
        2.3841900542720396e-07
      ],
      "type": "VEC2"
    },
    {
      "bufferView": 1,
      "byteOffset": 8264,
      "componentType": 5126,
      "count": 1033,
      "max": [
        1.0,
        1.0
      ],
      "min": [
        0.0,
        2.3841900542720396e-07
      ],
      "type": "VEC2"
    },
    {
      "bufferView": 0,
      "componentType": 5125,
      "count": 5544,
      "type": "SCALAR"
    },
    {
      "bufferView": 2,
      "byteOffset": 24792,
      "componentType": 5126,
      "count": 1033,
      "max": [
        80.0398178100586,
        80.0398178100586,
        80.0398178100586
      ],
      "min": [
        -80.0398178100586,
        -80.0398178100586,
        -80.0398178100586
      ],
      "type": "VEC3"
    },
    {
      "bufferView": 2,
      "byteOffset": 37188,
      "componentType": 5126,
      "count": 1033,
      "max": [
        1.0,
        1.0,
        1.0
      ],
      "min": [
        -1.0,
        -1.0,
        -1.0
      ],
      "type": "VEC3"
    },
    {
      "bufferView": 1,
      "byteOffset": 16528,
      "componentType": 5126,
      "count": 1033,
      "max": [
        1.0,
        1.0
      ],
      "min": [
        0.0,
        2.3841900542720396e-07
      ],
      "type": "VEC2"
    },
    {
      "bufferView": 0,
      "byteOffset": 22176,
      "componentType": 5125,
      "count": 5544,
      "type": "SCALAR"
    }
  ],
  "asset": {
    "extras": {
      "author": "Wilmer Osario (https://sketchfab.com/Wguayana)",
      "license": "CC-BY-4.0 (http://creativecommons.org/licenses/by/4.0/)",
      "source": "https://sketchfab.com/3d-models/simple-earth-planet-90ef7a003b7b4d1d9c5f038a562c686f",
      "title": "Simple Earth Planet"
    },
    "generator": "Sketchfab-12.67.0",
    "version": "2.0"
  },
  "bufferViews": [
    {
      "buffer": 0,
      "byteLength": 44352,
      "name": "floatBufferViews",
      "target": 34963
    },
    {
      "buffer": 0,
      "byteLength": 24792,
      "byteOffset": 44352,
      "byteStride": 8,
      "name": "floatBufferViews",
      "target": 34962
    },
    {
      "buffer": 0,
      "byteLength": 49584,
      "byteOffset": 69144,
      "byteStride": 12,
      "name": "floatBufferViews",
      "target": 34962
    }
  ],
  "buffers": [
    {
      "byteLength": 118728,
      "uri": "scene.bin"
    }
  ],
  "extensionsRequired": [
    "KHR_materials_pbrSpecularGlossiness"
  ],
  "extensionsUsed": [
    "KHR_materials_pbrSpecularGlossiness"
  ],
  "images": [
    {
      "uri": "textures/1_-_Default_diffuse.jpeg"
    },
    {
      "uri": "textures/2_-_Default_diffuse.png"
    }
  ],
  "materials": [
    {
      "extensions": {
        "KHR_materials_pbrSpecularGlossiness": {
          "diffuseFactor": [
            1.0,
            1.0,
            1.0,
            1.0
          ],
          "diffuseTexture": {
            "index": 0
          },
          "glossinessFactor": 0.0,
          "specularFactor": [
            0.0,
            0.0,
            0.0
          ],
          "specularGlossinessTexture": {
            "index": 1
          }
        }
      },
      "name": "1_-_Default"
    },
    {
      "alphaMode": "BLEND",
      "extensions": {
        "KHR_materials_pbrSpecularGlossiness": {
          "diffuseFactor": [
            1.0,
            1.0,
            1.0,
            1.0
          ],
          "diffuseTexture": {
            "index": 2
          },
          "glossinessFactor": 0.6541539634146342,
          "specularFactor": [
            0.03830030487804878,
            0.03830030487804878,
            0.03830030487804878
          ]
        }
      },
      "name": "2_-_Default"
    }
  ],
  "meshes": [
    {
      "name": "_2_-_Default_1",
      "primitives": [
        {
          "attributes": {
            "NORMAL": 1,
            "POSITION": 0,
            "TEXCOORD_0": 2,
            "TEXCOORD_1": 3
          },
          "indices": 4,
          "material": 1,
          "mode": 4
        }
      ]
    },
    {
      "name": "_1_-_Default_1",
      "primitives": [
        {
          "attributes": {
            "NORMAL": 6,
            "POSITION": 5,
            "TEXCOORD_0": 7
          },
          "indices": 8,
          "material": 0,
          "mode": 4
        }
      ]
    }
  ],
  "nodes": [
    {
      "children": [
        1
      ],
      "matrix": [
        0.005158970598131418,
        0.0,
        0.0,
        0.0,
        0.0,
        1.1455215882819432e-18,
        -0.005158970598131418,
        0.0,
        0.0,
        0.005158970598131418,
        1.1455215882819432e-18,
        0.0,
        0.0,
        0.0,
        0.0,
        1.0
      ],
      "name": "Sketchfab_model"
    },
    {
      "children": [
        2,
        4,
        6
      ],
      "name": "Collada visual scene group"
    },
    {
      "children": [
        3
      ],
      "name": "Clouds"
    },
    {
      "mesh": 0,
      "name": "_2_-_Default_1"
    },
    {
      "children": [
        5
      ],
      "matrix": [
        1.0,
        0.0,
        0.0,
        0.0,
        0.0,
        1.0,
        0.0,
        0.0,
        0.0,
        0.0,
        1.0,
        0.0,
        0.4080811142921448,
        0.13687129318714142,
        0.0,
        1.0
      ],
      "name": "Earth"
    },
    {
      "mesh": 1,
      "name": "_1_-_Default_1"
    },
    {
      "children": [
        7
      ],
      "name": "EnvironmentAmbientLight"
    },
    {
      "name": "EnvironmentAmbientLight"
    }
  ],
  "samplers": [
    {
      "magFilter": 9729,
      "minFilter": 9729,
      "wrapS": 10497,
      "wrapT": 10497
    },
    {
      "magFilter": 9729,
      "minFilter": 9987,
      "wrapS": 10497,
      "wrapT": 10497
    }
  ],
  "scene": 0,
  "scenes": [
    {
      "name": "Sketchfab_Scene",
      "nodes": [
        0
      ]
    }
  ],
  "textures": [
    {
      "sampler": 0,
      "source": 0
    },
    {
      "sampler": 1,
      "source": 0
    },
    {
      "sampler": 0,
      "source": 1
    }
  ]
}
