{
  "accessors": [
    {
      "bufferView": 2,
      "componentType": 5126,
      "count": 1462,
      "max": [
        0.9359827637672424,
        0.9359807372093201,
        20.978294372558594
      ],
      "min": [
        -0.9359793663024902,
        -0.9359815120697021,
        17.540729522705078
      ],
      "type": "VEC3"
    },
    {
      "bufferView": 2,
      "byteOffset": 17544,
      "componentType": 5126,
      "count": 1462,
      "max": [
        0.9994825124740601,
        0.9994825124740601,
        0.9972132444381714
      ],
      "min": [
        -0.9994825124740601,
        -0.9994825124740601,
        -0.8681681156158447
      ],
      "type": "VEC3"
    },
    {
      "bufferView": 1,
      "componentType": 5126,
      "count": 1462,
      "max": [
        0.9999690651893616,
        0.9995236396789551
      ],
      "min": [
        3.069639205932617e-05,
        0.0032512247562408447
      ],
      "type": "VEC2"
    },
    {
      "bufferView": 1,
      "byteOffset": 11696,
      "componentType": 5126,
      "count": 1462,
      "max": [
        0.9999690651893616,
        0.9995236396789551
      ],
      "min": [
        3.069639205932617e-05,
        0.0032512247562408447
      ],
      "type": "VEC2"
    },
    {
      "bufferView": 0,
      "componentType": 5125,
      "count": 4866,
      "type": "SCALAR"
    },
    {
      "bufferView": 2,
      "byteOffset": 35088,
      "componentType": 5126,
      "count": 2530,
      "max": [
        0.4521305561065674,
        0.4244493544101715,
        1.795297384262085
      ],
      "min": [
        -0.4521305561065674,
        -0.5004807114601135,
        -3.3864850997924805
      ],
      "type": "VEC3"
    },
    {
      "bufferView": 2,
      "byteOffset": 65448,
      "componentType": 5126,
      "count": 2530,
      "max": [
        1.0,
        1.0,
        1.0
      ],
      "min": [
        -1.0,
        -1.0,
        -1.0
      ],
      "type": "VEC3"
    },
    {
      "bufferView": 0,
      "byteOffset": 19464,
      "componentType": 5125,
      "count": 7020,
      "type": "SCALAR"
    },
    {
      "bufferView": 2,
      "byteOffset": 95808,
      "componentType": 5126,
      "count": 1073,
      "max": [
        0.8899999856948853,
        0.8899999856948853,
        18.119218826293945
      ],
      "min": [
        -0.8899999856948853,
        -0.8900002241134644,
        0.5117468237876892
      ],
      "type": "VEC3"
    },
    {
      "bufferView": 2,
      "byteOffset": 108684,
      "componentType": 5126,
      "count": 1073,
      "max": [
        1.0,
        1.0,
        0.9953741431236267
      ],
      "min": [
        -1.0,
        -1.0,
        -1.0
      ],
      "type": "VEC3"
    },
    {
      "bufferView": 1,
      "byteOffset": 23392,
      "componentType": 5126,
      "count": 1073,
      "max": [
        0.9985164403915405,
        0.7777519822120667
      ],
      "min": [
        0.00010680298873921856,
        0.003636866807937622
      ],
      "type": "VEC2"
    },
    {
      "bufferView": 1,
      "byteOffset": 31976,
      "componentType": 5126,
      "count": 1073,
      "max": [
        0.9985164403915405,
        0.7777519822120667
      ],
      "min": [
        0.00010680298873921856,
        0.003636866807937622
      ],
      "type": "VEC2"
    },
    {
      "bufferView": 0,
      "byteOffset": 47544,
      "componentType": 5125,
      "count": 4602,
      "type": "SCALAR"
    },
    {
      "bufferView": 2,
      "byteOffset": 121560,
      "componentType": 5126,
      "count": 576,
      "max": [
        0.9900000095367432,
        0.9900000095367432,
        0.06865216046571732
      ],
      "min": [
        -0.9900000095367432,
        -0.9900000095367432,
        -0.06865216046571732
      ],
      "type": "VEC3"
    },
    {
      "bufferView": 2,
      "byteOffset": 128472,
      "componentType": 5126,
      "count": 576,
      "max": [
        1.0,
        1.0,
        0.999925971031189
      ],
      "min": [
        -1.0,
        -1.0,
        -0.999925971031189
      ],
      "type": "VEC3"
    },
    {
      "bufferView": 0,
      "byteOffset": 65952,
      "componentType": 5125,
      "count": 3456,
      "type": "SCALAR"
    },
    {
      "bufferView": 2,
      "byteOffset": 135384,
      "componentType": 5126,
      "count": 416,
      "max": [
        0.5159888863563538,
        0.5159887075424194,
        1.3295023441314697
      ],
      "min": [
        -0.515988826751709,
        -0.5159890651702881,
        0.49836766719818115
      ],
      "type": "VEC3"
    },
    {
      "bufferView": 2,
      "byteOffset": 140376,
      "componentType": 5126,
      "count": 416,
      "max": [
        0.9980332851409912,
        0.9980332851409912,
        0.2582864761352539
      ],
      "min": [
        -0.9980332851409912,
        -0.9980332851409912,
        -1.0
      ],
      "type": "VEC3"
    },
    {
      "bufferView": 1,
      "byteOffset": 40560,
      "componentType": 5126,
      "count": 416,
      "max": [
        0.9838470220565796,
        0.9699311256408691
      ],
      "min": [
        0.6449466943740845,
        0.6310446262359619
      ],
      "type": "VEC2"
    },
    {
      "bufferView": 1,
      "byteOffset": 43888,
      "componentType": 5126,
      "count": 416,
      "max": [
        0.9838470220565796,
        0.9699311256408691
      ],
      "min": [
        0.6449466943740845,
        0.6310446262359619
      ],
      "type": "VEC2"
    },
    {
      "bufferView": 0,
      "byteOffset": 79776,
      "componentType": 5125,
      "count": 2202,
      "type": "SCALAR"
    },
    {
      "bufferView": 2,
      "byteOffset": 145368,
      "componentType": 5126,
      "count": 6933,
      "max": [
        1.4321885108947754,
        1.4321885108947754,
        1.861790418624878
      ],
      "min": [
        -1.4321885108947754,
        -1.4321885108947754,
        -0.9466981887817383
      ],
      "type": "VEC3"
    },
    {
      "bufferView": 2,
      "byteOffset": 228564,
      "componentType": 5126,
      "count": 6933,
      "max": [
        0.9999139308929443,
        0.9999135732650757,
        1.0
      ],
      "min": [
        -0.9999139308929443,
        -0.9999135732650757,
        -1.0
      ],
      "type": "VEC3"
    },
    {
      "bufferView": 1,
      "byteOffset": 47216,
      "componentType": 5126,
      "count": 6933,
      "max": [
        0.9734981060028076,
        0.9824405312538147
      ],
      "min": [
        0.032320376485586166,
        0.4318074584007263
      ],
      "type": "VEC2"
    },
    {
      "bufferView": 1,
      "byteOffset": 102680,
      "componentType": 5126,
      "count": 6933,
      "max": [
        0.9734981060028076,
        0.9824405312538147
      ],
      "min": [
        0.032320376485586166,
        0.4318074584007263
      ],
      "type": "VEC2"
    },
    {
      "bufferView": 0,
      "byteOffset": 88584,
      "componentType": 5125,
      "count": 29952,
      "type": "SCALAR"
    },
    {
      "bufferView": 2,
      "byteOffset": 311760,
      "componentType": 5126,
      "count": 788,
      "max": [
        0.10646761208772659,
        1.0066488981246948,
        -0.19595612585544586
      ],
      "min": [
        -0.09179843962192535,
        -1.0066488981246948,
        -0.4702622890472412
      ],
      "type": "VEC3"
    },
    {
      "bufferView": 2,
      "byteOffset": 321216,
      "componentType": 5126,
      "count": 788,
      "max": [
        0.9828867316246033,
        0.9992223978042603,
        1.0
      ],
      "min": [
        -0.9828867316246033,
        -0.9992223978042603,
        -1.0
      ],
      "type": "VEC3"
    },
    {
      "bufferView": 1,
      "byteOffset": 158144,
      "componentType": 5126,
      "count": 788,
      "max": [
        0.9997032880783081,
        0.2664111852645874
      ],
      "min": [
        0.9779787063598633,
        0.25554904341697693
      ],
      "type": "VEC2"
    },
    {
      "bufferView": 1,
      "byteOffset": 164448,
      "componentType": 5126,
      "count": 788,
      "max": [
        0.9997032880783081,
        0.2664111852645874
      ],
      "min": [
        0.9779787063598633,
        0.25554904341697693
      ],
      "type": "VEC2"
    },
    {
      "bufferView": 0,
      "byteOffset": 208392,
      "componentType": 5125,
      "count": 3216,
      "type": "SCALAR"
    }
  ],
  "asset": {
    "extras": {
      "author": "Stanley Creative (https://sketchfab.com/Stanley_Creative)",
      "license": "CC-BY-4.0 (http://creativecommons.org/licenses/by/4.0/)",
      "source": "https://sketchfab.com/3d-models/mercury-redstone-launch-vehicle-d1c09c4321e443cd956370dadabd04d9",
      "title": "Mercury- Redstone Launch Vehicle"
    },
    "generator": "Sketchfab-12.68.0",
    "version": "2.0"
  },
  "bufferViews": [
    {
      "buffer": 0,
      "byteLength": 221256,
      "name": "floatBufferViews",
      "target": 34963
    },
    {
      "buffer": 0,
      "byteLength": 170752,
      "byteOffset": 221256,
      "byteStride": 8,
      "name": "floatBufferViews",
      "target": 34962
    },
    {
      "buffer": 0,
      "byteLength": 330672,
      "byteOffset": 392008,
      "byteStride": 12,
      "name": "floatBufferViews",
      "target": 34962
    }
  ],
  "buffers": [
    {
      "byteLength": 722680,
      "uri": "scene.bin"
    }
  ],
  "images": [
    {
      "uri": "textures/Mercury_Capsule_baseColor.png"
    },
    {
      "uri": "textures/Mercury_Capsule_metallicRoughness.png"
    },
    {
      "uri": "textures/Redstone_Rocket_baseColor.png"
    },
    {
      "uri": "textures/Redstone_Rocket_metallicRoughness.png"
    }
  ],
  "materials": [
    {
      "doubleSided": true,
      "name": "Mercury_Capsule",
      "pbrMetallicRoughness": {
        "baseColorTexture": {
          "index": 0
        },
        "metallicRoughnessTexture": {
          "index": 1
        }
      }
    },
    {
      "doubleSided": true,
      "name": "Atlas_Escape_Tower_Red.001",
      "pbrMetallicRoughness": {
        "baseColorFactor": [
          0.7999999999999999,
          0.029584000000000006,
          0.015438999999999987,
          1.0
        ],
        "roughnessFactor": 0.5202305631817512
      }
    },
    {
      "doubleSided": true,
      "name": "Redstone_Rocket",
      "pbrMetallicRoughness": {
        "baseColorTexture": {
          "index": 2
        },
        "metallicRoughnessTexture": {
          "index": 3
        }
      }
    },
    {
      "doubleSided": true,
      "name": "Atlas_Escape_Tower_Red",
      "pbrMetallicRoughness": {
        "baseColorFactor": [
          0.7999999999999999,
          0.029584000000000006,
          0.015438999999999987,
          1.0
        ],
        "roughnessFactor": 0.5453877958861537
      }
    }
  ],
  "meshes": [
    {
      "name": "Mercury Capsule_Mercury Capsule_0",
      "primitives": [
        {
          "attributes": {
            "NORMAL": 1,
            "POSITION": 0,
            "TEXCOORD_0": 2,
            "TEXCOORD_1": 3
          },
          "indices": 4,
          "material": 0,
          "mode": 4
        }
      ]
    },
    {
      "name": "Launch Escape Tower_Atlas Escape Tower Red.001_0",
      "primitives": [
        {
          "attributes": {
            "NORMAL": 6,
            "POSITION": 5
          },
          "indices": 7,
          "material": 1,
          "mode": 4
        }
      ]
    },
    {
      "name": "Redstone Booster_Redstone Rocket_0",
      "primitives": [
        {
          "attributes": {
            "NORMAL": 9,
            "POSITION": 8,
            "TEXCOORD_0": 10,
            "TEXCOORD_1": 11
          },
          "indices": 12,
          "material": 2,
          "mode": 4
        }
      ]
    },
    {
      "name": "Capsule Ring_Atlas Escape Tower Red_0",
      "primitives": [
        {
          "attributes": {
            "NORMAL": 14,
            "POSITION": 13
          },
          "indices": 15,
          "material": 3,
          "mode": 4
        }
      ]
    },
    {
      "name": "Redstone Engine_Redstone Rocket_0",
      "primitives": [
        {
          "attributes": {
            "NORMAL": 17,
            "POSITION": 16,
            "TEXCOORD_0": 18,
            "TEXCOORD_1": 19
          },
          "indices": 20,
          "material": 2,
          "mode": 4
        }
      ]
    },
    {
      "name": "Redstone Fins_Redstone Rocket_0",
      "primitives": [
        {
          "attributes": {
            "NORMAL": 22,
            "POSITION": 21,
            "TEXCOORD_0": 23,
            "TEXCOORD_1": 24
          },
          "indices": 25,
          "material": 2,
          "mode": 4
        }
      ]
    },
    {
      "name": "Redstone Fins.001_Redstone Rocket_0",
      "primitives": [
        {
          "attributes": {
            "NORMAL": 27,
            "POSITION": 26,
            "TEXCOORD_0": 28,
            "TEXCOORD_1": 29
          },
          "indices": 30,
          "material": 2,
          "mode": 4
        }
      ]
    }
  ],
  "nodes": [
    {
      "children": [
        1
      ],
      "matrix": [
        0.009999999776482582,
        -1.6081225870133875e-18,
        -5.356124167566104e-34,
        0.0,
        8.006836245305084e-35,
        3.828568586632864e-18,
        -0.009999999776482582,
        0.0,
        1.6081225870133875e-18,
        0.009999999776482582,
        3.828568586632864e-18,
        0.0,
        -8.429372428508941e-06,
        5.232893727224969e-07,
        2.2288588297669776e-05,
        1.0
      ],
      "name": "Sketchfab_model"
    },
    {
      "children": [
        2
      ],
      "matrix": [
        1.0,
        0.0,
        0.0,
        0.0,
        0.0,
        0.0,
        1.0,
        0.0,
        0.0,
        -1.0,
        0.0,
        0.0,
        0.0,
        0.0,
        0.0,
        1.0
      ],
      "name": "ceb9dce0baad4613bb363e809adb0fd7.fbx"
    },
    {
      "children": [
        3
      ],
      "name": "RootNode"
    },
    {
      "children": [
        4,
        8
      ],
      "matrix": [
        100.0,
        0.0,
        0.0,
        0.0,
        0.0,
        99.9999999999999,
        4.371138828673792e-06,
        0.0,
        0.0,
        -4.371138828673792e-06,
        99.9999999999999,
        0.0,
        0.0,
        0.0,
        0.0,
        1.0
      ],
      "name": "Redstone"
    },
    {
      "children": [
        5,
        6
      ],
      "matrix": [
        1.0,
        0.0,
        0.0,
        0.0,
        0.0,
        -1.6292067939183141e-07,
        -0.9999999999999868,
        0.0,
        0.0,
        0.9999999999999868,
        -1.6292067939183141e-07,
        0.0,
        0.0,
        0.0,
        0.0,
        1.0
      ],
      "name": "Mercury Capsule"
    },
    {
      "mesh": 0,
      "name": "Mercury Capsule_Mercury Capsule_0"
    },
    {
      "children": [
        7
      ],
      "matrix": [
        1.0,
        0.0,
        0.0,
        0.0,
        0.0,
        1.0,
        0.0,
        0.0,
        0.0,
        0.0,
        1.0,
        0.0,
        1.1604279279708862e-06,
        4.777684807777405e-07,
        23.660524368286133,
        1.0
      ],
      "name": "Launch Escape Tower"
    },
    {
      "mesh": 1,
      "name": "Launch Escape Tower_Atlas Escape Tower Red.001_0"
    },
    {
      "children": [
        9,
        10,
        12,
        14,
        16
      ],
      "matrix": [
        1.0,
        0.0,
        0.0,
        0.0,
        0.0,
        -1.6292067939183141e-07,
        -0.9999999999999868,
        0.0,
        0.0,
        0.9999999999999868,
        -1.6292067939183141e-07,
        0.0,
        0.0,
        0.0,
        0.0,
        1.0
      ],
      "name": "Redstone Booster"
    },
    {
      "mesh": 2,
      "name": "Redstone Booster_Redstone Rocket_0"
    },
    {
      "children": [
        11
      ],
      "matrix": [
        1.0000001192092896,
        0.0,
        0.0,
        0.0,
        0.0,
        1.0000001192092896,
        0.0,
        0.0,
        0.0,
        0.0,
        1.0,
        0.0,
        1.8733555862127105e-06,
        4.190952154203842e-07,
        18.15545082092285,
        1.0
      ],
      "name": "Capsule Ring"
    },
    {
      "mesh": 3,
      "name": "Capsule Ring_Atlas Escape Tower Red_0"
    },
    {
      "children": [
        13
      ],
      "name": "Redstone Engine"
    },
    {
      "mesh": 4,
      "name": "Redstone Engine_Redstone Rocket_0"
    },
    {
      "children": [
        15
      ],
      "matrix": [
        0.7071066814385419,
        -0.7071067123471587,
        -1.3234889800848446e-23,
        0.0,
        0.7071067123471587,
        0.7071066814385419,
        1.323488980084845e-23,
        0.0,
        -4.090722368589316e-31,
        -1.8716962884109067e-23,
        1.0,
        0.0,
        0.0,
        0.0,
        1.0,
        1.0
      ],
      "name": "Redstone Fins"
    },
    {
      "mesh": 5,
      "name": "Redstone Fins_Redstone Rocket_0"
    },
    {
      "children": [
        17
      ],
      "matrix": [
        0.7071066814385419,
        0.7071067123471587,
        1.3234889800848446e-23,
        0.0,
        -0.7071067123471587,
        0.7071066814385419,
        1.323488980084845e-23,
        0.0,
        4.090722368589316e-31,
        -1.8716962884109067e-23,
        1.0,
        0.0,
        0.0,
        0.0,
        1.0,
        1.0
      ],
      "name": "Redstone Fins.001"
    },
    {
      "mesh": 6,
      "name": "Redstone Fins.001_Redstone Rocket_0"
    }
  ],
  "samplers": [
    {
      "magFilter": 9729,
      "minFilter": 9987,
      "wrapS": 10497,
      "wrapT": 10497
    }
  ],
  "scene": 0,
  "scenes": [
    {
      "name": "Sketchfab_Scene",
      "nodes": [
        0
      ]
    }
  ],
  "textures": [
    {
      "sampler": 0,
      "source": 0
    },
    {
      "sampler": 0,
      "source": 1
    },
    {
      "sampler": 0,
      "source": 2
    },
    {
      "sampler": 0,
      "source": 3
    }
  ]
}
